# xmcd
#
# Track frame offsets: 
#        150
#        22887
#        69055
#        103245
#        116304
#        133362
#        166337
#        182392
#
# Disc length: 2555 seconds
#
# Revision: 3
# Processed by: cddbd v1.5.2PL0 Copyright (c) Steve Scherf et al.
# Submitted via: ExactAudioCopy v1.0b3
#
DISCID=5e09f908
DTITLE=桂文珍 - 桂文珍5 「老婆の休日」「ヘイ!マスター」
DYEAR=2001
DGENRE=Other
TTITLE0=老婆の休日 出囃子「圓馬ばやし」～マクラ1：私と父母
TTITLE1=老婆の休日 マクラ2：老いたる父母
TTITLE2=老婆の休日 高齢者の院内歓談
TTITLE3=老婆の休日 食事の証明印～触診への期待～サゲ～中入り砂切り
TTITLE4=ヘイ!マスター 出囃子「都ばやし」～マクラ
TTITLE5=ヘイ!マスター アイ・ライク・ジャパン
TTITLE6=ヘイ!マスター スシ・イクラ・ハゥマチ
TTITLE7=ヘイ!マスター タイムヌードル何ドル?～サゲ～中入り砂切り
EXTD=
EXTT0=
EXTT1=
EXTT2=
EXTT3=
EXTT4=
EXTT5=
EXTT6=
EXTT7=
PLAYORDER=
